<svg xmlns="http://www.w3.org/2000/svg" viewBox="0 0 64 64">
  <defs>
    <linearGradient id="bg" x1="0%" x2="100%" y1="0%" y2="100%">
      <stop offset="0%" stop-color="#1c766f" />
      <stop offset="100%" stop-color="#0f2b46" />
    </linearGradient>
  </defs>
  <rect width="64" height="64" rx="18" fill="url(#bg)" />
  <path
    d="M18 43l8-22h4l8 22h-4.5l-1.7-5h-8.7l-1.7 5H18Zm9.7-16.1-3.1 8.8h6.2l-3.1-8.8Z"
    fill="#f8fafc"
  />
  <path
    d="M40 21h6.6c4.5 0 7.4 2.6 7.4 6.8 0 4.2-2.9 6.8-7.4 6.8H44V43h-4V21Zm6 10.4c2.5 0 4-1.2 4-3.6 0-2.3-1.5-3.5-4-3.5H44v7.1h2Z"
    fill="#d7fff7"
  />
</svg>
